<svg width="21" height="21" viewBox="0 0 21 21" fill="none" xmlns="http://www.w3.org/2000/svg">
<path d="M16.7475 11.319C16.779 11.0565 16.8 10.7835 16.8 10.5C16.8 10.2165 16.779 9.9435 16.737 9.681L18.5115 8.295C18.669 8.169 18.711 7.938 18.6165 7.7595L16.9365 4.851C16.8315 4.662 16.611 4.599 16.422 4.662L14.3325 5.502C13.8915 5.166 13.4295 4.893 12.915 4.683L12.6 2.457C12.5685 2.247 12.39 2.1 12.18 2.1H8.82C8.61 2.1 8.442 2.247 8.4105 2.457L8.0955 4.683C7.581 4.893 7.1085 5.1765 6.678 5.502L4.5885 4.662C4.3995 4.5885 4.179 4.662 4.074 4.851L2.394 7.7595C2.289 7.9485 2.331 8.169 2.499 8.295L4.2735 9.681C4.2315 9.9435 4.2 10.227 4.2 10.5C4.2 10.773 4.221 11.0565 4.263 11.319L2.4885 12.705C2.331 12.831 2.289 13.062 2.3835 13.2405L4.0635 16.149C4.1685 16.338 4.389 16.401 4.578 16.338L6.6675 15.498C7.1085 15.834 7.5705 16.107 8.085 16.317L8.4 18.543C8.442 18.753 8.61 18.9 8.82 18.9H12.18C12.39 18.9 12.5685 18.753 12.5895 18.543L12.9045 16.317C13.419 16.107 13.8915 15.8235 14.322 15.498L16.4115 16.338C16.6005 16.4115 16.821 16.338 16.926 16.149L18.606 13.2405C18.711 13.0515 18.669 12.831 18.501 12.705L16.7475 11.319ZM10.5 13.65C8.7675 13.65 7.35 12.2325 7.35 10.5C7.35 8.7675 8.7675 7.35 10.5 7.35C12.2325 7.35 13.65 8.7675 13.65 10.5C13.65 12.2325 12.2325 13.65 10.5 13.65Z" fill="#AEAEAE"/>
</svg>
